<svg data-v-423bf9ae="" xmlns="http://www.w3.org/2000/svg" viewBox="0 0 262.0048043204538 60" class="font"><!----><!----><defs data-v-423bf9ae=""><linearGradient data-v-423bf9ae="" gradientTransform="rotate(25)" id="87b95b81-9a77-4dce-aaeb-f8041ad78b5c" x1="0%" y1="0%" x2="100%" y2="0%"><stop data-v-423bf9ae="" offset="0%" style="stop-color: rgb(135, 84, 78); stop-opacity: 1;"></stop><stop data-v-423bf9ae="" offset="100%" style="stop-color: rgb(135, 84, 78); stop-opacity: 1;"></stop></linearGradient></defs><g data-v-423bf9ae="" id="4faa7673-dda7-4c38-8fa0-c6e8a856facd" fill="url(#87b95b81-9a77-4dce-aaeb-f8041ad78b5c)" transform="matrix(3.6014406092158597,0,0,3.6014406092158597,-4.933975294561947,-8.967586912874921)"><path d="M5.05 3.61L5.05 3.61Q6.75 3.61 7.66 4.32L7.66 4.32L7.66 4.32Q8.57 5.03 8.57 6.01L8.57 6.01L8.57 6.01Q8.57 6.99 7.91 7.86L7.91 7.86L7.91 7.86Q7.25 8.74 6.05 9.32L6.05 9.32L6.05 9.32Q8.76 9.74 8.76 11.97L8.76 11.97L8.76 11.97Q8.76 13.05 8.06 14.13L8.06 14.13L8.06 14.13Q6.73 16.18 3.96 16.18L3.96 16.18L3.96 16.18Q2.58 16.18 1.97 15.76L1.97 15.76L1.97 15.76Q1.37 15.34 1.37 14.49L1.37 14.49L1.37 14.49Q1.37 13.64 1.90 10.10L1.90 10.10L1.90 10.10Q2.44 6.57 2.44 5.58L2.44 5.58L2.44 5.58Q2.44 4.59 2.23 3.93L2.23 3.93L2.23 3.93Q3.95 3.61 5.05 3.61L5.05 3.61ZM3.28 10.05L3.28 10.05L3.28 10.05Q2.90 12.54 2.90 13.49L2.90 13.49L2.90 13.49Q2.90 14.43 3.01 14.85L3.01 14.85L3.01 14.85Q3.54 15.20 4.34 15.20L4.34 15.20L4.34 15.20Q5.67 15.20 6.47 14.32L6.47 14.32L6.47 14.32Q7.27 13.44 7.27 12.36L7.27 12.36L7.27 12.36Q7.27 11.28 6.59 10.59L6.59 10.59L6.59 10.59Q5.91 9.90 4.48 9.86L4.48 9.86L4.48 9.86Q3.86 10.00 3.28 10.05ZM3.39 9.28L3.39 9.28Q5.22 9.17 6.16 8.37L6.16 8.37L6.16 8.37Q7.10 7.57 7.10 6.60L7.10 6.60L7.10 6.60Q7.10 5.63 6.56 5.03L6.56 5.03L6.56 5.03Q6.02 4.42 4.90 4.42L4.90 4.42L4.90 4.42Q4.56 4.42 4.02 4.52L4.02 4.52L4.02 4.52Q4.00 5.33 3.39 9.28L3.39 9.28ZM14.06 7.50L14.06 7.50L14.06 7.50Q13.40 7.50 12.91 8.00L12.91 8.00L12.91 8.00Q12.43 8.50 12.19 9.25L12.19 9.25L12.19 9.25Q11.75 10.65 11.75 12.09L11.75 12.09L11.75 12.09Q11.75 13.52 12.33 14.38L12.33 14.38L12.33 14.38Q12.92 15.23 13.97 15.23L13.97 15.23L13.97 15.23Q14.64 15.23 15.13 14.74L15.13 14.74L15.13 14.74Q15.62 14.24 15.86 13.48L15.86 13.48L15.86 13.48Q16.31 12.04 16.31 10.62L16.31 10.62L16.31 10.62Q16.31 9.20 15.71 8.35L15.71 8.35L15.71 8.35Q15.12 7.50 14.06 7.50ZM13.29 16.27L13.29 16.27L13.29 16.27Q11.83 16.27 11.03 15.18L11.03 15.18L11.03 15.18Q10.23 14.08 10.23 12.40L10.23 12.40L10.23 12.40Q10.23 11.38 10.56 10.34L10.56 10.34L10.56 10.34Q10.88 9.30 11.44 8.42L11.44 8.42L11.44 8.42Q12.00 7.55 12.88 7.00L12.88 7.00L12.88 7.00Q13.76 6.45 14.78 6.45L14.78 6.45L14.78 6.45Q16.24 6.45 17.03 7.55L17.03 7.55L17.03 7.55Q17.82 8.64 17.82 10.32L17.82 10.32L17.82 10.32Q17.82 12.04 17.04 13.58L17.04 13.58L17.04 13.58Q16.18 15.25 14.84 15.92L14.84 15.92L14.84 15.92Q14.11 16.27 13.29 16.27ZM23.55 7.50L23.55 7.50L23.55 7.50Q22.89 7.50 22.41 8.00L22.41 8.00L22.41 8.00Q21.92 8.50 21.69 9.25L21.69 9.25L21.69 9.25Q21.24 10.65 21.24 12.09L21.24 12.09L21.24 12.09Q21.24 13.52 21.83 14.38L21.83 14.38L21.83 14.38Q22.41 15.23 23.46 15.23L23.46 15.23L23.46 15.23Q24.14 15.23 24.63 14.74L24.63 14.74L24.63 14.74Q25.12 14.24 25.35 13.48L25.35 13.48L25.35 13.48Q25.80 12.04 25.80 10.62L25.80 10.62L25.80 10.62Q25.80 9.20 25.21 8.35L25.21 8.35L25.21 8.35Q24.61 7.50 23.55 7.50ZM22.78 16.27L22.78 16.27L22.78 16.27Q21.32 16.27 20.52 15.18L20.52 15.18L20.52 15.18Q19.73 14.08 19.73 12.40L19.73 12.40L19.73 12.40Q19.73 11.38 20.05 10.34L20.05 10.34L20.05 10.34Q20.37 9.30 20.93 8.42L20.93 8.42L20.93 8.42Q21.49 7.55 22.37 7.00L22.37 7.00L22.37 7.00Q23.25 6.45 24.28 6.45L24.28 6.45L24.28 6.45Q25.73 6.45 26.52 7.55L26.52 7.55L26.52 7.55Q27.31 8.64 27.31 10.32L27.31 10.32L27.31 10.32Q27.31 12.04 26.53 13.58L26.53 13.58L26.53 13.58Q25.68 15.25 24.33 15.92L24.33 15.92L24.33 15.92Q23.60 16.27 22.78 16.27ZM31.09 13.71L31.09 13.71L31.09 13.71Q31.09 15.02 31.63 15.62L31.63 15.62L31.63 15.62Q31.19 16.13 30.66 16.13L30.66 16.13L30.66 16.13Q29.57 16.13 29.57 14.28L29.57 14.28L29.57 14.28Q29.57 13.59 30.07 10.19L30.07 10.19L30.07 10.19Q30.58 6.79 30.58 5.30L30.58 5.30L30.58 5.30Q30.58 3.81 30.28 3.22L30.28 3.22L30.28 3.22Q30.62 2.91 31.16 2.91L31.16 2.91L31.16 2.91Q31.70 2.91 31.93 3.25L31.93 3.25L31.93 3.25Q32.17 3.58 32.17 4.25L32.17 4.25L32.17 4.25Q32.17 4.91 32.03 5.95L32.03 5.95L32.03 5.95Q31.89 6.99 31.66 8.48L31.66 8.48L31.66 8.48Q31.43 9.98 31.32 10.91L31.32 10.91L31.32 10.91Q32.66 9.62 33.64 8.41L33.64 8.41L33.64 8.41Q34.62 7.20 34.75 6.68L34.75 6.68L34.75 6.68Q35.32 6.68 35.66 6.86L35.66 6.86L35.66 6.86Q36.01 7.04 36.01 7.32L36.01 7.32L36.01 7.32Q36.01 7.78 32.80 10.77L32.80 10.77L32.80 10.77Q34.16 13.06 34.76 13.79L34.76 13.79L34.76 13.79Q35.60 14.81 36.46 14.94L36.46 14.94L36.46 14.94Q36.44 15.62 36.10 15.90L36.10 15.90L36.10 15.90Q35.76 16.17 35.42 16.17L35.42 16.17L35.42 16.17Q34.55 16.17 33.50 14.55L33.50 14.55L33.50 14.55Q33.01 13.78 32.51 12.91L32.51 12.91L32.51 12.91Q32.00 12.04 31.79 11.69L31.79 11.69L31.16 12.25L31.16 12.25Q31.09 13.13 31.09 13.71ZM40.63 7.43L40.63 7.43L40.63 7.43Q40.04 7.43 39.69 7.74L39.69 7.74L39.69 7.74Q39.34 8.04 39.34 8.55L39.34 8.55L39.34 8.55Q39.34 9.07 39.68 9.46L39.68 9.46L39.68 9.46Q40.03 9.86 40.85 10.53L40.85 10.53L40.85 10.53Q41.68 11.20 41.87 11.37L41.87 11.37L41.87 11.37Q42.99 12.29 42.99 13.52L42.99 13.52L42.99 13.52Q42.99 14.76 42.18 15.48L42.18 15.48L42.18 15.48Q41.37 16.21 39.87 16.21L39.87 16.21L39.87 16.21Q38.75 16.21 38.00 15.79L38.00 15.79L38.00 15.79Q37.25 15.36 37.25 14.55L37.25 14.55L37.25 14.55Q37.25 13.97 37.93 13.30L37.93 13.30L37.93 13.30Q38.16 14.31 38.79 14.81L38.79 14.81L38.79 14.81Q39.41 15.30 40.09 15.30L40.09 15.30L40.09 15.30Q40.77 15.30 41.21 14.97L41.21 14.97L41.21 14.97Q41.65 14.63 41.65 14.08L41.65 14.08L41.65 14.08Q41.65 13.61 41.48 13.34L41.48 13.34L41.48 13.34Q41.30 13.06 41.20 12.93L41.20 12.93L41.20 12.93Q41.10 12.80 40.82 12.55L40.82 12.55L40.82 12.55Q40.54 12.31 40.40 12.19L40.40 12.19L40.40 12.19Q40.25 12.07 39.83 11.74L39.83 11.74L39.83 11.74Q39.41 11.41 39.20 11.24L39.20 11.24L39.20 11.24Q38.04 10.33 38.04 9.06L38.04 9.06L38.04 9.06Q38.04 7.78 38.91 7.12L38.91 7.12L38.91 7.12Q39.77 6.45 41.29 6.45L41.29 6.45L41.29 6.45Q43.18 6.45 43.18 7.76L43.18 7.76L43.18 7.76Q43.18 8.37 42.53 8.88L42.53 8.88L42.53 8.88Q41.94 7.43 40.63 7.43ZM46.82 15.93L46.82 15.93L46.82 15.93Q46.34 16.13 45.88 16.13L45.88 16.13L45.88 16.13Q45.43 16.13 45.24 15.77L45.24 15.77L45.24 15.77Q45.05 15.41 45.05 14.63L45.05 14.63L45.05 14.63Q45.05 13.85 45.63 10.43L45.63 10.43L45.63 10.43Q46.59 4.59 45.91 3.22L45.91 3.22L45.91 3.22Q46.24 2.91 46.78 2.91L46.78 2.91L46.78 2.91Q47.32 2.91 47.56 3.25L47.56 3.25L47.56 3.25Q47.80 3.58 47.80 4.47L47.80 4.47L47.80 4.47Q47.80 5.36 47.33 8.05L47.33 8.05L47.33 8.05Q46.86 10.74 46.77 11.41L46.77 11.41L46.77 11.41Q48.26 7.85 49.32 6.93L49.32 6.93L49.32 6.93Q49.81 6.51 50.30 6.51L50.30 6.51L50.30 6.51Q51.93 6.51 51.93 8.93L51.93 8.93L51.93 8.93Q51.93 9.63 51.77 10.95L51.77 10.95L51.77 10.95Q51.60 12.26 51.60 12.95L51.60 12.95L51.60 12.95Q51.60 14.92 52.22 15.62L52.22 15.62L52.22 15.62Q51.73 16.13 51.24 16.13L51.24 16.13L51.24 16.13Q50.08 16.13 50.08 13.41L50.08 13.41L50.08 13.41Q50.08 12.40 50.31 10.87L50.31 10.87L50.31 10.87Q50.54 9.34 50.54 8.91L50.54 8.91L50.54 8.91Q50.54 8.48 50.37 8.24L50.37 8.24L50.37 8.24Q50.20 7.99 49.78 7.99L49.78 7.99L49.78 7.99Q49.22 7.99 48.44 9.28L48.44 9.28L48.44 9.28Q47.66 10.56 47.12 12.16L47.12 12.16L47.12 12.16Q46.58 13.76 46.58 14.67L46.58 14.67L46.58 14.67Q46.58 15.58 46.82 15.93ZM56.41 12.10L56.41 12.10L56.41 12.10Q56.03 12.10 55.65 12.05L55.65 12.05L55.65 12.05Q55.66 13.61 56.23 14.42L56.23 14.42L56.23 14.42Q56.80 15.23 57.82 15.23L57.82 15.23L57.82 15.23Q59.26 15.23 59.92 13.82L59.92 13.82L59.92 13.82Q60.26 14.14 60.26 14.60L60.26 14.60L60.26 14.60Q60.26 15.39 59.38 15.83L59.38 15.83L59.38 15.83Q58.51 16.27 57.55 16.27L57.55 16.27L57.55 16.27Q55.86 16.27 55.00 15.19L55.00 15.19L55.00 15.19Q54.14 14.11 54.14 12.40L54.14 12.40L54.14 12.40Q54.14 11.38 54.46 10.34L54.46 10.34L54.46 10.34Q54.78 9.30 55.34 8.42L55.34 8.42L55.34 8.42Q55.90 7.55 56.78 7.00L56.78 7.00L56.78 7.00Q57.67 6.45 58.72 6.45L58.72 6.45L58.72 6.45Q59.77 6.45 60.32 6.99L60.32 6.99L60.32 6.99Q60.87 7.52 60.87 8.36L60.87 8.36L60.87 8.36Q60.87 9.72 59.62 10.91L59.62 10.91L59.62 10.91Q58.37 12.10 56.41 12.10ZM59.40 8.82L59.40 8.82Q59.40 8.25 59.05 7.88L59.05 7.88L59.05 7.88Q58.69 7.50 58.06 7.50L58.06 7.50L58.06 7.50Q57.44 7.50 56.99 7.85L56.99 7.85L56.99 7.85Q56.53 8.20 56.27 8.79L56.27 8.79L56.27 8.79Q55.79 9.88 55.68 11.16L55.68 11.16L55.68 11.16Q56.01 11.20 56.31 11.20L56.31 11.20L56.31 11.20Q57.74 11.20 58.57 10.46L58.57 10.46L58.57 10.46Q59.40 9.73 59.40 8.82L59.40 8.82ZM65.32 4.35L65.32 4.35L65.32 4.35Q65.32 5.12 64.78 8.71L64.78 8.71L64.78 8.71Q64.25 12.29 64.25 13.67L64.25 13.67L64.25 13.67Q64.25 15.05 64.78 15.62L64.78 15.62L64.78 15.62Q64.34 16.13 63.81 16.13L63.81 16.13L63.81 16.13Q62.72 16.13 62.72 14.28L62.72 14.28L62.72 14.28Q62.72 13.59 63.22 10.19L63.22 10.19L63.22 10.19Q63.71 6.79 63.71 5.30L63.71 5.30L63.71 5.30Q63.71 3.81 63.42 3.22L63.42 3.22L63.42 3.22Q63.57 3.09 63.86 3.00L63.86 3.00L63.86 3.00Q64.15 2.91 64.36 2.91L64.36 2.91L64.36 2.91Q64.85 2.91 65.09 3.25L65.09 3.25L65.09 3.25Q65.32 3.58 65.32 4.35ZM72.14 2.49L72.14 2.49L72.14 2.49Q74.12 2.49 74.12 3.75L74.12 3.75L74.12 3.75Q74.12 4.47 73.47 4.91L73.47 4.91L73.47 4.91Q73.15 3.53 71.95 3.53L71.95 3.53L71.95 3.53Q71.11 3.53 70.55 4.38L70.55 4.38L70.55 4.38Q69.99 5.22 69.66 7.21L69.66 7.21L69.66 7.21Q71.33 7.21 71.92 6.80L71.92 6.80L71.92 6.80Q71.81 7.78 71.36 8.06L71.36 8.06L71.36 8.06Q70.91 8.34 69.48 8.37L69.48 8.37L69.48 8.37Q68.68 14.03 68.68 16.73L68.68 16.73L68.68 16.73Q68.68 18.05 69.22 18.65L69.22 18.65L69.22 18.65Q68.80 19.15 68.25 19.15L68.25 19.15L68.25 19.15Q67.16 19.15 67.16 17.37L67.16 17.37L67.16 17.37Q67.16 15.58 68.12 8.39L68.12 8.39L68.12 8.39Q67.07 8.41 66.54 8.75L66.54 8.75L66.54 8.75Q66.54 8.32 66.58 8.09L66.58 8.09L66.58 8.09Q66.63 7.85 66.79 7.63L66.79 7.63L66.79 7.63Q67.09 7.21 68.31 7.21L68.31 7.21L68.31 7.21Q68.71 5.24 69.73 3.86L69.73 3.86L69.73 3.86Q70.74 2.49 72.14 2.49Z"></path></g><!----><!----></svg>