<svg data-v-fde0c5aa="" xmlns="http://www.w3.org/2000/svg" width="1000" height="1000" viewBox="0 0 300 290" class="iconLeft"><!----><defs data-v-fde0c5aa=""><!----></defs><rect data-v-fde0c5aa="" fill="transparent" x="0" y="0" width="300px" height="300px" class="logo-background-square"></rect><defs data-v-fde0c5aa=""><!----></defs><g data-v-fde0c5aa="" id="ed508241-61ee-4707-aba2-265e4ea6af15" fill="#000000" transform="matrix(2.1150061773750055,0,0,2.1150061773750055,110.44792168949733,129.30466386859635)"><path d="M1.36 12.61L1.36 12.61L1.36 12.61Q1.65 10.64 1.81 8.82L1.81 8.82L1.81 8.82Q1.97 7 1.97 5.52L1.97 5.52L1.97 5.52Q1.97 4.03 1.78 3.57L1.78 3.57L1.78 3.57Q3.28 3.96 3.65 4.80L3.65 4.80L3.65 4.80Q4.73 4.20 5.94 4.20L5.94 4.20L5.94 4.20Q7.14 4.20 7.90 4.88L7.90 4.88L7.90 4.88Q8.67 5.56 8.67 6.53L8.67 6.53L8.67 6.53Q8.67 7.50 7.97 8.34L7.97 8.34L7.97 8.34Q7.27 9.17 6.05 9.58L6.05 9.58L6.05 9.58Q7.03 9.79 7.85 10.52L7.85 10.52L7.85 10.52Q8.67 11.26 8.67 12.33L8.67 12.33L8.67 12.33Q8.67 13.99 7.44 14.88L7.44 14.88L7.44 14.88Q6.22 15.76 4.35 15.76L4.35 15.76L4.35 15.76Q2.48 15.76 1.05 14.69L1.05 14.69L1.05 14.69Q1.06 14.57 1.36 12.61ZM6.69 6.86L6.69 6.86Q6.69 6.23 6.30 5.80L6.30 5.80L6.30 5.80Q5.91 5.38 5.19 5.38L5.19 5.38L5.19 5.38Q4.48 5.38 3.82 5.67L3.82 5.67L3.82 5.67Q3.82 6.52 3.45 9.97L3.45 9.97L3.45 9.97Q3.08 13.41 3.08 14.38L3.08 14.38L3.08 14.38Q3.70 14.63 4.27 14.63L4.27 14.63L4.27 14.63Q5.26 14.63 5.91 13.97L5.91 13.97L5.91 13.97Q6.55 13.31 6.55 12.32L6.55 12.32L6.55 12.32Q6.55 11.33 5.88 10.66L5.88 10.66L5.88 10.66Q5.21 10.00 4.00 9.94L4.00 9.94L3.96 9.44L3.96 9.44Q5.25 9.25 5.97 8.49L5.97 8.49L5.97 8.49Q6.69 7.73 6.69 6.86L6.69 6.86ZM14.56 8.41L14.56 8.41L14.56 8.41Q13.65 8.41 12.94 9.64L12.94 9.64L12.94 9.64Q12.22 10.86 12.22 12.08L12.22 12.08L12.22 12.08Q12.22 14.63 13.54 14.63L13.54 14.63L13.54 14.63Q14.48 14.63 15.06 13.41L15.06 13.41L15.06 13.41Q15.65 12.18 15.65 10.65L15.65 10.65L15.65 10.65Q15.65 8.41 14.56 8.41ZM15.43 7.39L15.43 7.39L15.43 7.39Q16.27 7.39 16.86 8.22L16.86 8.22L16.86 8.22Q17.44 9.04 17.44 10.43L17.44 10.43L17.44 10.43Q17.44 11.98 16.81 13.29L16.81 13.29L16.81 13.29Q16.11 14.76 14.83 15.32L14.83 15.32L14.83 15.32Q14.10 15.64 13.23 15.64L13.23 15.64L13.23 15.64Q12.01 15.64 11.11 14.69L11.11 14.69L11.11 14.69Q10.21 13.75 10.21 11.98L10.21 11.98L10.21 11.98Q10.21 10.21 11.07 8.86L11.07 8.86L11.07 8.86Q11.94 7.50 13.37 7.15L13.37 7.15L13.37 7.15Q13.52 7.15 13.66 7.25L13.66 7.25L13.66 7.25Q13.79 7.34 13.79 7.43L13.79 7.43L13.79 7.43Q12.38 8.41 12.10 10.16L12.10 10.16L12.10 10.16Q12.39 9.38 12.82 8.81L12.82 8.81L12.82 8.81Q13.24 8.23 13.71 7.94L13.71 7.94L13.71 7.94Q14.59 7.39 15.43 7.39ZM23.20 8.41L23.20 8.41L23.20 8.41Q22.29 8.41 21.57 9.64L21.57 9.64L21.57 9.64Q20.86 10.86 20.86 12.08L20.86 12.08L20.86 12.08Q20.86 14.63 22.18 14.63L22.18 14.63L22.18 14.63Q23.11 14.63 23.70 13.41L23.70 13.41L23.70 13.41Q24.29 12.18 24.29 10.65L24.29 10.65L24.29 10.65Q24.29 8.41 23.20 8.41ZM24.07 7.39L24.07 7.39L24.07 7.39Q24.91 7.39 25.49 8.22L25.49 8.22L25.49 8.22Q26.08 9.04 26.08 10.43L26.08 10.43L26.08 10.43Q26.08 11.98 25.45 13.29L25.45 13.29L25.45 13.29Q24.75 14.76 23.46 15.32L23.46 15.32L23.46 15.32Q22.74 15.64 21.87 15.64L21.87 15.64L21.87 15.64Q20.65 15.64 19.75 14.69L19.75 14.69L19.75 14.69Q18.84 13.75 18.84 11.98L18.84 11.98L18.84 11.98Q18.84 10.21 19.71 8.86L19.71 8.86L19.71 8.86Q20.58 7.50 22.01 7.15L22.01 7.15L22.01 7.15Q22.16 7.15 22.29 7.25L22.29 7.25L22.29 7.25Q22.43 7.34 22.43 7.43L22.43 7.43L22.43 7.43Q21.01 8.41 20.73 10.16L20.73 10.16L20.73 10.16Q21.03 9.38 21.45 8.81L21.45 8.81L21.45 8.81Q21.88 8.23 22.34 7.94L22.34 7.94L22.34 7.94Q23.23 7.39 24.07 7.39ZM32.45 7.32L32.45 7.32L32.45 7.32Q33.19 7.32 33.71 7.87L33.71 7.87L33.71 7.87Q34.23 8.41 34.23 9.27L34.23 9.27L34.23 9.27Q34.23 10.12 33.75 10.73L33.75 10.73L33.75 10.73Q33.26 11.34 32.40 11.68L32.40 11.68L32.56 12.19L32.56 12.19Q33.03 13.64 33.91 15.05L33.91 15.05L33.91 15.05Q34.79 16.46 35.34 16.98L35.34 16.98L35.34 16.98Q34.83 17.11 34.44 17.11L34.44 17.11L34.44 17.11Q33.03 17.11 31.96 15.05L31.96 15.05L31.96 15.05Q31.54 14.24 30.73 12.01L30.73 12.01L30.73 12.01Q30.55 12.03 30.20 12.03L30.20 12.03L30.20 12.03Q30.11 11.96 30.11 11.58L30.11 11.58L30.11 11.58Q30.76 11.56 31.26 11.35L31.26 11.35L31.26 11.35Q31.77 11.14 32.05 10.81L32.05 10.81L32.05 10.81Q32.58 10.12 32.58 9.37L32.58 9.37L32.58 9.37Q32.58 8.99 32.42 8.74L32.42 8.74L32.42 8.74Q32.26 8.50 31.96 8.50L31.96 8.50L31.96 8.50Q31.44 8.50 30.90 9.24L30.90 9.24L30.90 9.24Q30.37 9.98 29.99 11.30L29.99 11.30L29.99 11.30Q29.62 12.63 29.62 13.78L29.62 13.78L29.62 13.78Q29.62 14.94 29.71 15.43L29.71 15.43L29.71 15.43Q29.26 15.46 29.12 15.46L29.12 15.46L29.12 15.46Q28.32 15.46 27.97 15.18L27.97 15.18L27.97 15.18Q27.62 14.91 27.62 14.31L27.62 14.31L27.62 14.31Q27.62 13.71 27.87 12.01L27.87 12.01L27.87 12.01Q28.62 6.80 28.62 4.10L28.62 4.10L28.62 4.10Q28.62 2.88 28.45 2.46L28.45 2.46L28.45 2.46Q29.50 2.74 29.88 3.31L29.88 3.31L29.88 3.31Q30.27 3.88 30.27 4.91L30.27 4.91L30.27 4.91Q30.27 5.61 29.99 7.85L29.99 7.85L29.99 7.85Q29.72 10.09 29.62 11.10L29.62 11.10L29.62 11.10Q30.13 8.23 31.68 7.50L31.68 7.50L31.68 7.50Q32.07 7.32 32.45 7.32ZM38.79 8.18L38.79 8.18L38.79 8.18Q38.40 8.18 38.09 8.44L38.09 8.44L38.09 8.44Q37.79 8.69 37.79 9.17L37.79 9.17L37.79 9.17Q37.79 9.65 38.11 10.07L38.11 10.07L38.11 10.07Q38.44 10.49 38.92 10.80L38.92 10.80L38.92 10.80Q39.40 11.12 39.88 11.45L39.88 11.45L39.88 11.45Q40.36 11.77 40.73 12.26L40.73 12.26L40.73 12.26Q41.09 12.74 41.13 13.33L41.13 13.33L41.13 13.33Q41.13 14.34 40.26 15.02L40.26 15.02L40.26 15.02Q39.40 15.71 38.11 15.71L38.11 15.71L38.11 15.71Q36.82 15.71 36.09 15.19L36.09 15.19L36.09 15.19Q35.35 14.67 35.35 14L35.35 14L35.35 14Q35.35 13.33 35.76 12.92L35.76 12.92L35.76 12.92Q36.18 12.50 36.79 12.50L36.79 12.50L36.79 12.50Q37.11 12.50 37.39 12.61L37.39 12.61L37.39 12.61Q36.95 13.09 36.95 13.62L36.95 13.62L36.95 13.62Q36.95 14.15 37.24 14.48L37.24 14.48L37.24 14.48Q37.53 14.80 38.04 14.80L38.04 14.80L38.04 14.80Q38.54 14.80 38.88 14.54L38.88 14.54L38.88 14.54Q39.23 14.28 39.23 13.87L39.23 13.87L39.23 13.87Q39.23 13.45 38.99 13.13L38.99 13.13L38.99 13.13Q38.75 12.81 38.39 12.57L38.39 12.57L38.39 12.57Q38.04 12.32 37.62 12.01L37.62 12.01L37.62 12.01Q37.20 11.70 36.84 11.39L36.84 11.39L36.84 11.39Q36.48 11.07 36.25 10.59L36.25 10.59L36.25 10.59Q36.01 10.11 36.01 9.53L36.01 9.53L36.01 9.53Q36.01 8.54 36.83 7.90L36.83 7.90L36.83 7.90Q37.65 7.27 38.87 7.27L38.87 7.27L38.87 7.27Q40.10 7.27 40.66 7.74L40.66 7.74L40.66 7.74Q41.23 8.22 41.23 8.86L41.23 8.86L41.23 8.86Q41.23 9.49 40.83 9.94L40.83 9.94L40.83 9.94Q40.43 10.39 39.80 10.39L39.80 10.39L39.80 10.39Q39.49 10.39 39.10 10.26L39.10 10.26L39.10 10.26Q39.41 10.00 39.58 9.65L39.58 9.65L39.58 9.65Q39.75 9.31 39.75 8.97L39.75 8.97L39.75 8.97Q39.75 8.64 39.47 8.41L39.47 8.41L39.47 8.41Q39.19 8.18 38.79 8.18ZM44.76 11.10L44.76 11.10Q45.22 9.52 46.20 8.44L46.20 8.44L46.20 8.44Q47.18 7.35 48.03 7.35L48.03 7.35L48.03 7.35Q48.87 7.35 49.23 7.86L49.23 7.86L49.23 7.86Q49.59 8.37 49.59 9.25L49.59 9.25L49.59 9.25Q49.59 10.12 49.31 11.70L49.31 11.70L49.31 11.70Q49.04 13.29 49.04 14.01L49.04 14.01L49.04 14.01Q49.04 14.73 49.22 15.06L49.22 15.06L49.22 15.06Q49.41 15.39 49.84 15.62L49.84 15.62L49.84 15.62Q49.66 15.64 49.32 15.64L49.32 15.64L49.32 15.64Q48.15 15.64 47.65 15.27L47.65 15.27L47.65 15.27Q47.15 14.91 47.15 14L47.15 14L47.15 14Q47.15 13.48 47.43 11.98L47.43 11.98L47.43 11.98Q47.71 10.47 47.71 9.73L47.71 9.73L47.71 9.73Q47.71 8.81 47.15 8.81L47.15 8.81L47.15 8.81Q46.82 8.81 46.41 9.18L46.41 9.18L46.41 9.18Q46.00 9.56 45.63 10.21L45.63 10.21L45.63 10.21Q45.26 10.86 45.01 11.89L45.01 11.89L45.01 11.89Q44.76 12.91 44.76 13.92L44.76 13.92L44.76 13.92Q44.76 14.94 44.84 15.43L44.84 15.43L44.84 15.43Q44.39 15.46 44.25 15.46L44.25 15.46L44.25 15.46Q43.46 15.46 43.11 15.18L43.11 15.18L43.11 15.18Q42.76 14.91 42.76 14.31L42.76 14.31L42.76 14.31Q42.76 13.71 42.99 12.01L42.99 12.01L42.99 12.01Q43.75 6.80 43.75 4.10L43.75 4.10L43.75 4.10Q43.75 2.88 43.58 2.46L43.58 2.46L43.58 2.46Q44.63 2.74 45.02 3.31L45.02 3.31L45.02 3.31Q45.40 3.88 45.40 4.91L45.40 4.91L45.40 4.91Q45.40 5.61 45.13 7.85L45.13 7.85L45.13 7.85Q44.86 10.09 44.76 11.10L44.76 11.10ZM54.61 11.98L54.61 11.98L54.61 11.98Q53.94 11.98 53.30 11.83L53.30 11.83L53.30 11.83Q53.28 11.97 53.28 12.26L53.28 12.26L53.28 12.26Q53.28 13.43 53.72 14.01L53.72 14.01L53.72 14.01Q54.15 14.60 54.75 14.60L54.75 14.60L54.75 14.60Q55.36 14.60 55.90 14.24L55.90 14.24L55.90 14.24Q56.45 13.87 56.85 13.23L56.85 13.23L56.85 13.23Q57.36 13.34 57.36 13.75L57.36 13.75L57.36 13.75Q56.13 15.64 54.18 15.64L54.18 15.64L54.18 15.64Q53.00 15.64 52.12 14.74L52.12 14.74L52.12 14.74Q51.24 13.83 51.24 12.22L51.24 12.22L51.24 12.22Q51.24 11.02 51.70 9.93L51.70 9.93L51.70 9.93Q52.16 8.85 53.17 8.10L53.17 8.10L53.17 8.10Q54.18 7.35 55.41 7.35L55.41 7.35L55.41 7.35Q56.63 7.35 57.20 7.91L57.20 7.91L57.20 7.91Q57.78 8.47 57.78 9.38L57.78 9.38L57.78 9.38Q57.78 10.70 56.86 11.34L56.86 11.34L56.86 11.34Q55.94 11.98 54.61 11.98ZM55.20 8.22L55.20 8.22L55.20 8.22Q54.49 8.22 54.00 9.10L54.00 9.10L54.00 9.10Q53.51 9.98 53.35 11.24L53.35 11.24L53.56 11.24L53.56 11.24Q54.78 11.24 55.36 10.61L55.36 10.61L55.36 10.61Q55.94 9.98 55.94 9.10L55.94 9.10L55.94 9.10Q55.94 8.74 55.75 8.48L55.75 8.48L55.75 8.48Q55.57 8.22 55.20 8.22ZM59.57 15.08L59.57 15.08Q59.40 14.80 59.36 14.54L59.36 14.54L59.36 14.54Q59.32 14.28 59.32 13.73L59.32 13.73L59.32 13.73Q59.32 13.19 59.79 9.44L59.79 9.44L59.79 9.44Q60.26 5.68 60.26 4.28L60.26 4.28L60.26 4.28Q60.26 2.88 60.09 2.46L60.09 2.46L60.09 2.46Q61.14 2.74 61.52 3.31L61.52 3.31L61.52 3.31Q61.91 3.88 61.91 4.91L61.91 4.91L61.91 4.91Q61.91 5.53 61.50 8.92L61.50 8.92L61.50 8.92Q61.10 12.31 61.10 14.38L61.10 14.38L61.10 14.38Q61.10 14.83 61.15 15.64L61.15 15.64L61.15 15.64Q59.88 15.58 59.57 15.08L59.57 15.08ZM68.32 7.67L68.32 7.67L68.32 7.67Q68.32 8.34 68.08 8.60L68.08 8.60L68.08 8.60Q67.84 8.86 67.25 8.86L67.25 8.86L67.25 8.86Q66.65 8.86 66.33 8.85L66.33 8.85L66.33 8.85Q65.79 12.82 65.79 14.55L65.79 14.55L65.79 14.55Q65.79 15.37 65.82 15.74L65.82 15.74L65.82 15.74Q65.86 16.11 66.01 17.01L66.01 17.01L66.01 17.01Q65.00 16.69 64.53 15.97L64.53 15.97L64.53 15.97Q64.05 15.25 64.05 14.27L64.05 14.27L64.05 14.27Q64.05 12.80 64.47 9.93L64.47 9.93L64.47 9.93Q64.57 9.20 64.60 8.96L64.60 8.96L64.60 8.96Q63.85 9.09 63.08 9.44L63.08 9.44L63.08 9.44Q63.06 9.13 63.06 8.97L63.06 8.97L63.06 8.97Q63.06 8.22 63.52 7.95L63.52 7.95L63.52 7.95Q63.98 7.69 64.85 7.67L64.85 7.67L64.85 7.67Q65.13 6.30 65.60 5.31L65.60 5.31L65.60 5.31Q66.07 4.31 66.63 3.81L66.63 3.81L66.63 3.81Q67.69 2.83 68.85 2.83L68.85 2.83L68.85 2.83Q69.64 2.83 70.17 3.30L70.17 3.30L70.17 3.30Q70.71 3.77 70.71 4.45L70.71 4.45L70.71 4.45Q70.71 5.12 70.25 5.63L70.25 5.63L70.25 5.63Q69.79 6.13 69.03 6.13L69.03 6.13L69.03 6.13Q68.74 6.13 68.46 6.03L68.46 6.03L68.46 6.03Q68.68 5.87 68.90 5.45L68.90 5.45L68.90 5.45Q69.12 5.03 69.12 4.66L69.12 4.66L69.12 4.66Q69.12 4.28 68.96 4.07L68.96 4.07L68.96 4.07Q68.80 3.86 68.53 3.86L68.53 3.86L68.53 3.86Q67.96 3.86 67.36 4.82L67.36 4.82L67.36 4.82Q66.77 5.78 66.47 7.71L66.47 7.71L66.47 7.71Q67.72 7.71 68.29 7.25L68.29 7.25L68.29 7.25Q68.32 7.53 68.32 7.67Z"></path></g><defs data-v-fde0c5aa=""><linearGradient data-v-fde0c5aa="" gradientTransform="rotate(25)" id="e6b880c7-f496-47d4-861c-8f38a0e076b8" x1="0%" y1="0%" x2="100%" y2="0%"><stop data-v-fde0c5aa="" offset="0%" stop-color="#87544E" stop-opacity="1"></stop><stop data-v-fde0c5aa="" offset="100%" stop-color="#87544E" stop-opacity="1"></stop></linearGradient></defs><g data-v-fde0c5aa="" id="1b901a4a-2871-4aa9-a077-99b373e684e2" stroke="none" fill="url(#e6b880c7-f496-47d4-861c-8f38a0e076b8)" transform="matrix(0.601810980490696,0,0,0.601810980490696,39.51806799383332,117.045733939043)"><path d="M9.756 35.468l46.47 15.582 30.42-15.809a1.14 1.14 0 0 0-1.05-2.023l-.334.173c-1.124-1.942-.61-4.153-.236-5.235l2.284-1.184c.559-.29.777-.978.486-1.537a1.13 1.13 0 0 0-.732-.575l.017-.009-36.245-8.707-40.358 8.011c-.371.03-.721.239-.913.59-.11.202-2.667 5.006-.019 10.302l.21.421zm74.184-1.389L56.033 48.581 11.389 33.612c-.077-.175-.139-.348-.202-.521l45.032 14.58.154.049 27.282-14.207c.085.189.178.378.285.566zM54.454 19.763l20.202 5.025-9.55 4.045-21.508-6.257 10.856-2.813zm-43.429 7.472l45.802 15.542 26.409-13.692c-.05.261-.088.54-.117.829L56.395 43.43 10.771 28.325c.071-.406.16-.77.254-1.09zm-.355 1.872l45.634 15.108.154.05 26.62-13.464c.002.121.012.245.019.369l.095.823c.047.262.106.525.188.791L56.303 46.885 10.9 32.186c-.074-.295-.131-.584-.189-.873l-.067-.834a9.51 9.51 0 0 1 .026-1.372z"></path><path d="M56.437 52.58L22.591 40.961l-10.77 3.035c-.353.014-.691.2-.882.526-.118.202-2.852 5.034-.083 12.813.114.322.374.567.699.666L61.236 72.93a1.078 1.078 0 0 0 .87-.117L87.311 57.13c.499-.311.652-.969.341-1.469a1.057 1.057 0 0 0-.726-.484c-1.254-4.381-.355-7.06-.337-7.113.029-.08.046-.16.055-.24l1.924-.989a1.067 1.067 0 0 0-.379-2.009l-9.271-3.613L56.437 52.58zm28.515 3.504L61.386 70.747 12.692 56.115a22.153 22.153 0 0 1-.282-.951l48.704 14.32.159.047 23.454-14.229c.068.255.146.516.225.782zm-.41-1.558L61.168 68.711l-48.97-14.398a17.486 17.486 0 0 1-.404-2.584l48.889 14.995.157.048L84.331 53.44c.057.349.13.714.211 1.086zM60.75 65.952L11.754 50.924c-.016-.706.019-1.345.084-1.919l48.844 14.981.157.048 23.27-13.204c.003.546.032 1.145.109 1.804L60.75 65.952zm23.378-16.004L60.75 63.215 11.948 48.247a10.46 10.46 0 0 1 .58-2.097l48.854 14.339a1.082 1.082 0 0 0 .79-.073l22.03-11.335c-.031.263-.057.55-.074.867z"></path><path d="M98.073 63.002c-2.075-4.417-.879-7.93-.824-8.084.011-.031.005-.062.014-.095l2.055-1.321a1.375 1.375 0 0 0 .413-1.9c-.242-.375-.557-.562-1.045-.739l-2.676-.944-.05-.017-2.907-1.025-.022.013-3.344-1.156-2.104 1.093s-.431 3.603.654 5.542h.095c.146.013.467.096.946.526.649.583.325 1.868.298 1.971L61.422 74.599 13.344 60.472l-.913.332-9.324 3.812-.015.001-.071.004a1.372 1.372 0 0 0-1.128.798c-.093.205-2.25 5.086-.235 10.104l.238.592L53.298 93.17l.61.203 45.034-27.839a1.376 1.376 0 0 0 .447-1.894 1.368 1.368 0 0 0-1.316-.638zM4.022 67.673l49.805 15.01 8.617-5.342a1.36 1.36 0 0 0 .271-.228l30.362-19.597 1.791-1.153a13.304 13.304 0 0 0-.059 1.929L53.197 84.605 3.681 69.321c.09-.635.216-1.203.341-1.648zm-.418 2.345L53.146 85.31l.151.047 41.567-26.285c.074.771.222 1.606.472 2.491L53.307 88.141 4.068 71.745a.342.342 0 0 0-.451.34 10.767 10.767 0 0 1-.013-2.067zm49.951 20.338L4.002 73.914a9.264 9.264 0 0 1-.379-1.793.338.338 0 0 0 .228.275l49.394 16.448.155.052 42.144-26.65c.188.558.425 1.134.704 1.72l-42.693 26.39z"></path></g><!----></svg>